<?xml version="1.0" encoding="UTF-8" standalone="no"?>
<!DOCTYPE svg PUBLIC "-//W3C//DTD SVG 1.1//EN" "http://www.w3.org/Graphics/SVG/1.1/DTD/svg11.dtd">
<!-- Created with Vectornator (http://vectornator.io/) -->
<svg height="100%" stroke-miterlimit="10" style="fill-rule:nonzero;clip-rule:evenodd;stroke-linecap:round;stroke-linejoin:round;" version="1.1" viewBox="50.5312 183.188 922.938 657.625" width="100%" xml:space="preserve" xmlns="http://www.w3.org/2000/svg" xmlns:vectornator="http://vectornator.io" xmlns:xlink="http://www.w3.org/1999/xlink">
<defs/>
<clipPath id="ArtboardFrame">
<rect height="657.625" width="922.938" x="50.5312" y="183.188"/>
</clipPath>
<g clip-path="url(#ArtboardFrame)" id="Layer" vectornator:layerName="Layer">
<path d="M149.594 183.188C122.945 183.188 99.0508 194.52 81.375 212.75C78.2727 215.084 75.3293 217.705 72.6875 220.875C71.7801 221.964 70.9573 223.222 70.0938 224.406C69.4592 225.298 68.7654 226.096 68.1562 227.031C60.7473 238.4 55.3995 252.92 52.6562 268.375C52.0566 271.478 51.6273 274.653 51.2812 277.844C51.2319 278.329 51.1063 278.795 51.0625 279.281C51.0549 279.365 51.0405 279.448 51.0312 279.531C51.0303 279.542 51.0322 279.552 51.0312 279.562C50.9984 279.854 50.9612 280.144 50.9375 280.438C50.9367 280.448 50.9383 280.458 50.9375 280.469C50.6712 283.776 50.5313 287.112 50.5312 290.438L50.5312 733.562C50.5312 792.249 94.2531 840.813 149.594 840.812L874.406 840.812C912.453 840.812 944.994 817.854 961.625 784.438C969.185 769.248 973.469 751.902 973.469 733.562L973.469 290.438C973.469 287.1 973.33 283.761 973.062 280.438C973.039 280.144 973.002 279.854 972.969 279.562C972.96 279.468 972.947 279.376 972.938 279.281C972.894 278.795 972.768 278.329 972.719 277.844C972.373 274.653 971.943 271.478 971.344 268.375C968.601 252.92 963.253 238.4 955.844 227.031C955.235 226.097 954.541 225.298 953.906 224.406C953.043 223.222 952.22 221.964 951.312 220.875C948.671 217.705 945.727 215.084 942.625 212.75C924.949 194.52 901.055 183.187 874.406 183.188L149.594 183.188ZM149.594 233.188L874.406 233.188C879.074 233.188 883.615 234.01 887.938 235.469C887.473 237.352 886.921 239.129 886.594 241.156C879.255 286.654 811.033 359.402 711.5 432.188C668.884 463.351 623.594 492.209 584.438 513.406C565.838 523.475 549.25 531.463 535.844 536.844C529.421 539.421 523.861 541.333 519.344 542.562C515.678 543.56 513.077 544 512 544C510.923 544 508.322 543.56 504.656 542.562C500.139 541.333 494.579 539.422 488.156 536.844C474.75 531.463 458.162 523.475 439.562 513.406C400.406 492.209 355.116 463.351 312.5 432.188C212.967 359.402 144.745 286.654 137.406 241.156C137.079 239.129 136.527 237.352 136.062 235.469C140.385 234.01 144.926 233.188 149.594 233.188ZM100.781 287.062C112.561 311.153 131.497 336.743 156.875 363.812C189.996 399.141 233.659 436.503 282.969 472.562C327.364 505.028 374.594 535.078 415.781 557.375C453.624 577.861 483.552 590.526 503.875 593.375C506.757 593.804 509.476 594 512 594C514.487 594 517.184 593.776 520.062 593.375C520.081 593.372 520.106 593.378 520.125 593.375C540.448 590.526 570.376 577.861 608.219 557.375C649.406 535.078 696.636 505.028 741.031 472.562C790.341 436.504 834.003 399.141 867.125 363.812C892.503 336.743 911.438 311.153 923.219 287.062C923.272 288.198 923.469 289.299 923.469 290.438C923.469 291.303 923.469 732.697 923.469 733.562C923.469 765.734 900.899 790.812 874.406 790.812L149.594 790.812C123.101 790.812 100.531 765.734 100.531 733.562C100.531 732.697 100.531 291.303 100.531 290.438C100.531 289.294 100.72 288.195 100.781 287.062Z" fill="#ffffff" fill-rule="nonzero" opacity="1" stroke="none" vectornator:layerName="Kurve 2"/>
</g>
</svg>
