<svg width="98" height="96" xmlns="http://www.w3.org/2000/svg">
<path d="M216.958 0.890704C213.866 0.890704 211.364 3.34373 211.364 6.35945L211.364 71.672C211.364 74.6887 213.866 77.1407 216.958 77.1407L281.552 77.1407C284.644 77.1407 287.145 74.6887 287.145 71.672L287.145 6.35945C287.145 3.34373 284.644 0.890704 281.552 0.890704L216.958 0.890704ZM228.708 13.7032C232.623 13.7032 235.009 16.2623 235.083 19.6407C235.083 22.9448 232.605 25.5782 228.614 25.5782L228.552 25.5782C224.711 25.5782 222.208 22.9448 222.208 19.6407C222.208 16.2623 224.793 13.7032 228.708 13.7032ZM262.427 29.4845C269.956 29.4845 275.614 34.409 275.614 44.9845L275.614 64.7345L264.177 64.7345L264.177 46.297C264.177 41.6684 262.505 38.5157 258.364 38.5157C255.203 38.5157 253.316 40.6472 252.489 42.7032C252.187 43.4388 252.114 44.4554 252.114 45.4845L252.114 64.7345L240.677 64.7345C240.677 64.7345 240.827 33.5277 240.677 30.297L252.114 30.297L252.114 35.2032C253.631 32.8555 256.327 29.4845 262.427 29.4845ZM222.895 30.297L234.333 30.297L234.333 64.7345L222.895 64.7345L222.895 30.297Z" fill="#ffffff" fill-rule="nonzero" opacity="1" stroke="none" />

</svg>
