<?xml version="1.0" encoding="UTF-8" standalone="no"?>
<!DOCTYPE svg PUBLIC "-//W3C//DTD SVG 1.1//EN" "http://www.w3.org/Graphics/SVG/1.1/DTD/svg11.dtd">
<!-- Created with Vectornator (http://vectornator.io/) -->
<svg height="100%" stroke-miterlimit="10" style="fill-rule:nonzero;clip-rule:evenodd;stroke-linecap:round;stroke-linejoin:round;" version="1.1" viewBox="0 0 75 75" width="100%" xml:space="preserve" xmlns="http://www.w3.org/2000/svg" xmlns:xlink="http://www.w3.org/1999/xlink">
<defs/>
<g id="Ohne-Titel">
<path d="M5.53635 1.46549e-14C2.47621 1.46549e-14 0 2.41281 0 5.37909L0 69.621C0 72.5882 2.47621 75 5.53635 75L69.4646 75C72.5248 75 75 72.5882 75 69.621L75 5.37909C75 2.41281 72.5248 1.46549e-14 69.4646 1.46549e-14L5.53635 1.46549e-14ZM17.1653 12.6025C21.0399 12.6025 23.4013 15.1196 23.4746 18.4426C23.4746 21.6926 21.0221 24.2828 17.0722 24.2828L17.0109 24.2828C13.2094 24.2828 10.7322 21.6926 10.7322 18.4426C10.7322 15.1196 13.2906 12.6025 17.1653 12.6025ZM50.5367 28.125C57.9882 28.125 63.5878 32.9688 63.5878 43.3709L63.5878 62.7972L52.2687 62.7972L52.2687 44.6619C52.2687 40.1092 50.6139 37.0082 46.5156 37.0082C43.3872 37.0082 41.5196 39.1048 40.7012 41.127C40.4023 41.8506 40.33 42.8505 40.33 43.8628L40.33 62.7972L29.0109 62.7972C29.0109 62.7972 29.1594 32.102 29.0109 28.9242L40.33 28.9242L40.33 33.75C41.8314 31.4408 44.4996 28.125 50.5367 28.125ZM11.4122 28.9242L22.7323 28.9242L22.7323 62.7972L11.4122 62.7972L11.4122 28.9242Z" fill="#ffffff" fill-rule="nonzero" opacity="1" stroke="none"/>
</g>
</svg>
