<?xml version="1.0" encoding="UTF-8" standalone="no"?>
<!DOCTYPE svg PUBLIC "-//W3C//DTD SVG 1.1//EN" "http://www.w3.org/Graphics/SVG/1.1/DTD/svg11.dtd">
<!-- Created with Vectornator (http://vectornator.io/) -->
<svg height="100%" stroke-miterlimit="10" style="fill-rule:nonzero;clip-rule:evenodd;stroke-linecap:round;stroke-linejoin:round;" version="1.1" viewBox="0 0 1024 1024" width="100%" xml:space="preserve" xmlns="http://www.w3.org/2000/svg" xmlns:vectornator="http://vectornator.io" xmlns:xlink="http://www.w3.org/1999/xlink">
<defs/>
<g id="Ebene-1" vectornator:layerName="Ebene 1">
<path d="M239.219 256C230.235 256 222.938 263.192 222.938 272.062L222.938 751.938C222.937 760.808 230.235 768 239.219 768L509 768C461.056 768 416.223 754.779 377.875 731.844L264.719 731.844C257.141 731.844 251 728.991 251 725.469L251 534.938C251.254 528.095 250.882 528.749 264.719 528.562L446.688 528.562C452.793 525.524 459.031 520.281 459.031 512C459.031 503.719 452.793 498.477 446.688 495.438L265.781 495.438C261.874 495.438 251.88 497.288 252.062 489.062C252.141 485.545 252.062 298.531 252.062 298.531C252.062 295.009 258.204 292.156 265.781 292.156L377.875 292.156C416.223 269.221 461.056 256 509 256L239.219 256ZM509 256C519.388 256 529.623 256.672 539.688 257.875C537.434 256.712 534.905 256 532.188 256L509 256ZM509 768L510.031 767.969C509.686 767.97 509.346 768 509 768Z" fill="#fff" fill-rule="nonzero" opacity="0" stroke="none"/>
<path d="M511.465 147C318.502 147 160.585 296.311 147 485.534L416.466 485.534C431.11 485.534 442.971 497.378 442.971 512C442.971 526.622 431.109 538.466 416.466 538.466L147 538.466C160.585 727.689 318.502 877 511.465 877C511.958 877 512.444 876.957 512.937 876.955L512.937 630.384L378.449 630.384C363.806 630.384 351.944 618.54 351.944 603.918C351.944 589.297 363.806 577.452 378.449 577.452L539.62 577.452C554.264 577.452 566.125 589.297 566.125 603.918C566.125 605.177 565.939 606.36 565.768 607.572C565.836 608.346 565.991 609.097 565.991 609.889L565.991 872.945C742.013 846.662 877 695.084 877 512C877 310.416 713.344 147 511.465 147Z" fill="#fff" fill-rule="nonzero" opacity="1" stroke="#fff" stroke-linecap="butt" stroke-linejoin="round" stroke-width="2"/>
</g>
<g id="Ebene-2" vectornator:layerName="Ebene 2" visibility="hidden">
<g opacity="0">
<path d="M779.976 774.296C779.976 778.764 779.727 782.673 779.231 786.024C778.735 789.374 777.866 792.166 776.625 794.4C775.384 796.634 773.957 798.247 772.344 799.24C770.73 800.233 768.931 800.729 766.945 800.729L535.753 800.729C530.044 800.729 524.646 798.806 519.558 794.959C514.47 791.112 511.926 784.348 511.926 774.669L511.926 345.045C511.926 335.366 514.47 328.602 519.558 324.755C524.646 320.908 530.044 318.985 535.753 318.985L764.339 318.985C766.325 318.985 768.124 319.481 769.738 320.474C771.351 321.467 772.654 323.08 773.647 325.314C774.639 327.548 775.446 330.34 776.067 333.69C776.687 337.041 776.997 341.198 776.997 346.162C776.997 350.63 776.687 354.539 776.067 357.889C775.446 361.24 774.639 363.97 773.647 366.08C772.654 368.189 771.351 369.74 769.738 370.733C768.124 371.726 766.325 372.222 764.339 372.222L575.96 372.222L575.96 523.372L737.534 523.372C739.52 523.372 741.319 523.931 742.933 525.048C744.546 526.165 745.911 527.716 747.028 529.701C748.145 531.687 748.951 534.417 749.448 537.892C749.944 541.367 750.192 545.462 750.192 550.177C750.192 554.645 749.944 558.492 749.448 561.718C748.951 564.945 748.145 567.551 747.028 569.537C745.911 571.522 744.546 572.949 742.933 573.818C741.319 574.687 739.52 575.121 737.534 575.121L575.96 575.121L575.96 747.492L766.945 747.492C768.931 747.492 770.73 747.988 772.344 748.981C773.957 749.973 775.384 751.525 776.625 753.634C777.866 755.744 778.735 758.474 779.231 761.825C779.727 765.175 779.976 769.333 779.976 774.296Z" fill="#fff" opacity="1" stroke="none" vectornator:layerName="Text"/>
</g>
<path d="M601.903 196.841C601.903 200.062 602.072 202.902 602.411 205.36C602.75 207.819 603.259 209.853 603.937 211.464C604.615 213.074 605.463 214.219 606.48 214.897C607.497 215.575 608.599 215.914 609.786 215.914C611.821 215.914 615.211 214.303 619.958 211.082C624.705 207.861 631.063 204.301 639.031 200.401C646.999 196.502 656.536 192.942 667.64 189.721C678.745 186.499 691.926 184.889 707.184 184.889C725.325 184.889 741.6 188.195 756.011 194.807C770.421 201.419 782.628 210.574 792.63 222.272C802.633 233.969 810.304 247.871 815.645 263.977C820.985 280.083 823.655 297.545 823.655 316.364C823.655 337.386 820.731 356.035 814.882 372.311C809.033 388.586 800.938 402.318 790.596 413.508C780.254 424.697 767.921 433.174 753.595 438.938C739.269 444.702 723.545 447.584 706.421 447.584C696.249 447.584 685.95 446.355 675.524 443.897C665.097 441.439 655.391 437.751 646.406 432.835L646.406 336.962L722.697 336.962C725.579 336.962 727.741 335.521 729.182 332.639C730.623 329.757 731.343 325.264 731.343 319.161C731.343 315.94 731.174 313.185 730.835 310.896C730.496 308.608 729.945 306.743 729.182 305.302C728.419 303.861 727.529 302.801 726.511 302.123C725.494 301.445 724.223 301.106 722.697 301.106L618.178 301.106C616.313 301.106 614.448 301.445 612.583 302.123C610.719 302.801 609.023 303.818 607.497 305.174C605.972 306.531 604.785 308.396 603.937 310.769C603.089 313.143 602.666 315.855 602.666 318.907L602.666 444.279C602.666 448.686 603.429 452.501 604.954 455.722C606.48 458.943 609.701 461.783 614.618 464.241C619.534 466.7 625.892 469.37 633.691 472.252C641.489 475.134 649.542 477.592 657.849 479.627C666.157 481.661 674.549 483.187 683.026 484.204C691.502 485.221 699.894 485.73 708.202 485.73C733.632 485.73 756.35 481.788 776.355 473.905C796.36 466.021 813.271 454.79 827.088 440.21C840.906 425.63 851.459 408.167 858.749 387.823C866.039 367.479 869.684 344.761 869.684 319.67C869.684 293.561 865.743 269.911 857.859 248.719C849.976 227.527 838.871 209.472 824.545 194.552C810.22 179.633 793.012 168.062 772.922 159.84C752.832 151.618 730.58 147.506 706.167 147.506C693.622 147.506 681.839 148.608 670.819 150.812C659.799 153.016 650.008 155.602 641.447 158.568C632.885 161.535 625.68 164.757 619.831 168.232C613.982 171.707 609.956 174.547 607.752 176.751C605.548 178.955 604.022 181.498 603.174 184.38C602.327 187.262 601.903 191.416 601.903 196.841Z" fill="#fff" opacity="0" stroke="none"/>
<path d="M264.296 160.763C255.761 160.763 247.701 163.655 240.094 169.407C232.486 175.159 228.693 185.258 228.693 199.73L228.693 842.077C228.693 856.549 232.486 866.648 240.094 872.4C247.701 878.152 255.761 881.044 264.296 881.044L572.854 881.044L590.516 881.044C599.241 880.879 607.799 880.382 616.213 879.595C637.6 877.596 658.09 873.792 677.467 867.774C706.483 858.763 731.711 845.295 753.158 827.453C774.605 809.61 791.357 787.913 803.432 762.321C815.507 736.728 821.56 707.517 821.56 674.715C821.561 646.961 816.969 622.894 807.777 602.528C798.585 582.163 786.479 564.503 771.52 549.545C756.561 534.586 739.556 521.618 720.452 510.624C701.348 499.631 681.873 489.54 662.048 480.348C642.223 471.156 622.749 462.073 603.645 453.062C584.541 444.05 567.535 434.113 552.577 423.299C537.618 412.486 525.611 400.072 516.6 386.014C507.589 371.957 503.097 355.205 503.097 335.74C503.097 322.404 505.42 309.79 510.105 297.895C514.791 286 521.853 275.709 531.224 267.058C540.596 258.407 552.456 251.446 566.874 246.219C574.083 243.606 581.951 241.686 590.422 240.379C597.533 239.282 605.177 238.733 613.176 238.557C613.493 238.392 613.85 238.326 614.157 238.136C616.57 236.652 618.513 234.329 619.998 231.175C621.482 228.021 622.668 223.943 623.595 218.933C624.523 213.924 624.997 208.092 624.997 201.412C624.997 193.991 624.523 187.779 623.595 182.77C622.668 177.76 621.482 173.588 619.998 170.248C618.513 166.908 616.569 164.49 614.157 163.006C613.036 162.316 611.848 161.787 610.606 161.417C609.177 160.992 607.663 160.763 606.074 160.763L264.296 160.763ZM324.429 240.379L439.601 240.379C433.924 248.447 428.729 256.98 424.416 266.264C413.782 289.152 408.483 315.188 408.483 344.384C408.483 372.86 413.075 397.28 422.266 417.646C430.582 436.07 441.29 452.231 454.178 466.378L324.429 466.378L324.429 240.379ZM570.845 543.003C589.074 551.459 607.021 559.805 624.483 567.953C643.407 576.785 660.259 586.522 675.037 597.155C689.816 607.789 701.722 620.102 710.734 634.16C719.745 648.217 724.237 665.169 724.237 684.994C724.237 703.377 721.006 719.775 714.518 734.194C708.03 748.612 698.747 760.772 686.671 770.684C674.596 780.597 660.167 788.265 643.406 793.672C629.315 798.217 613.942 800.75 597.431 801.475C594.302 801.612 591.208 801.802 587.993 801.802C584.402 801.802 581.003 801.589 577.527 801.475L392.364 801.475L324.429 801.475L324.429 543.751L565.986 543.751C567.706 543.751 569.312 543.439 570.845 543.003Z" fill="#fff" fill-rule="nonzero" opacity="1" stroke="none"/>
</g>
</svg>
