<?xml version="1.0" encoding="UTF-8" standalone="no"?>
<!DOCTYPE svg PUBLIC "-//W3C//DTD SVG 1.1//EN" "http://www.w3.org/Graphics/SVG/1.1/DTD/svg11.dtd">
<!-- Created with Vectornator (http://vectornator.io/) -->
<svg height="100%" stroke-miterlimit="10" style="fill-rule:nonzero;clip-rule:evenodd;stroke-linecap:round;stroke-linejoin:round;" version="1.1" viewBox="0 0 850 850" width="100%" xml:space="preserve" xmlns="http://www.w3.org/2000/svg" xmlns:xlink="http://www.w3.org/1999/xlink">
<defs/>
<g id="Ebene-1">
<path d="M161.688 0C72.3854-2.03451e-05 0 72.3854 0 161.688L0 688.312C-2.03451e-05 777.615 72.3854 850 161.688 850L688.312 850C777.615 850 850 777.615 850 688.312L850 161.688C850 72.3854 777.615 0 688.312 0L161.688 0ZM511.438 209.125C522.201 209.125 532.619 212.955 542.688 220.594C553.104 229.274 558.16 238.834 557.812 249.25C557.812 253.417 554.319 258.625 547.375 264.875C539.042 271.819 533.833 277.365 531.75 281.531L371.344 585.688C369.261 589.16 365.278 600.619 359.375 620.062C355.208 632.562 350.521 639.333 345.312 640.375C336.979 642.111 326.378 639.323 313.531 632.031C299.296 623.698 292.187 613.802 292.188 602.344C292.535 596.788 294.955 591.243 299.469 585.688C306.066 577.702 309.896 572.83 310.938 571.094L482.812 249.25C484.201 246.82 486.101 239.864 488.531 228.406C490.614 220.073 494.261 214.528 499.469 211.75C502.941 210.014 506.924 209.125 511.438 209.125ZM229.688 274.75C238.715 274.75 247.493 277.17 256 282.031C264.507 286.892 269.118 292.101 269.812 297.656C270.507 303.906 267.382 309.82 260.438 315.375C248.632 324.403 242.382 329.243 241.688 329.938L158.875 426.812L249.5 512.25C261.305 523.361 267.188 533.41 267.188 542.438C267.188 545.91 266.514 549.403 265.125 552.875C259.222 567.805 248.284 575.25 232.312 575.25C226.063 575.25 219.628 573.871 213.031 571.094C206.434 568.316 202.788 564.854 202.094 560.688C201.399 556.521 200.878 551.986 200.531 547.125C200.184 543.653 198.805 540.712 196.375 538.281L129.688 477.875C111.633 462.945 102.625 447.84 102.625 432.562C102.625 417.633 112.414 399.142 132.031 377.094C151.649 355.046 171.549 333.062 191.688 311.188C193.424 309.104 196.886 302.701 202.094 291.938C205.913 284.299 210.785 279.274 216.688 276.844C220.507 275.455 224.827 274.75 229.688 274.75ZM617.688 274.75C622.548 274.75 626.899 275.455 630.719 276.844C636.621 279.274 641.493 284.115 645.312 291.406C651.215 303.211 654.677 309.799 655.719 311.188C661.621 318.826 681.935 340.887 716.656 377.344C737.141 398.871 747.375 416.243 747.375 429.438C747.375 443.326 738.704 457.542 721.344 472.125L651.031 538.281C648.253 540.712 646.875 546.441 646.875 555.469C646.528 562.413 642.361 567.622 634.375 571.094C627.778 573.871 621.343 575.25 615.094 575.25C599.122 575.25 588.184 567.805 582.281 552.875C580.892 549.403 580.188 545.91 580.188 542.438C580.188 533.41 586.101 523.361 597.906 512.25L688.531 426.812L605.719 329.938C605.024 329.243 598.774 324.402 586.969 315.375C579.677 309.82 576.552 303.906 577.594 297.656C578.288 292.101 582.9 286.892 591.406 282.031C599.913 277.17 608.66 274.75 617.688 274.75Z" fill="#ffffff" fill-rule="nonzero" opacity="1" stroke="none"/>
</g>
</svg>
