<?xml version="1.0" encoding="UTF-8" standalone="no"?>
<!DOCTYPE svg PUBLIC "-//W3C//DTD SVG 1.1//EN" "http://www.w3.org/Graphics/SVG/1.1/DTD/svg11.dtd">
<!-- Created with Vectornator (http://vectornator.io/) -->
<svg height="100%" stroke-miterlimit="10" style="fill-rule:nonzero;clip-rule:evenodd;stroke-linecap:round;stroke-linejoin:round;" version="1.1" viewBox="51.125 129.656 921.75 764.688" width="100%" xml:space="preserve" xmlns="http://www.w3.org/2000/svg" xmlns:vectornator="http://vectornator.io" xmlns:xlink="http://www.w3.org/1999/xlink">
<defs/>
<clipPath id="ArtboardFrame">
<rect height="764.688" width="921.75" x="51.125" y="129.656"/>
</clipPath>
<g clip-path="url(#ArtboardFrame)" id="Layer" vectornator:layerName="Layer">
<path d="M587 129.656C540.359 129.656 501.246 161.534 490 204.656L76.4688 204.656C62.4786 204.656 51.125 216.01 51.125 230C51.125 243.99 62.4786 255.344 76.4688 255.344L490 255.344C501.246 298.466 540.359 330.344 587 330.344C633.641 330.344 672.754 298.466 684 255.344L947.531 255.344C961.521 255.344 972.875 243.99 972.875 230C972.875 216.01 961.521 204.656 947.531 204.656L684 204.656C672.754 161.534 633.641 129.656 587 129.656ZM587 180.344C605.134 180.344 620.833 190.147 629.5 204.656C633.943 212.095 636.656 220.703 636.656 230C636.656 239.297 633.943 247.905 629.5 255.344C620.833 269.853 605.134 279.656 587 279.656C568.866 279.656 553.167 269.853 544.5 255.344C540.057 247.905 537.344 239.297 537.344 230C537.344 220.703 540.057 212.095 544.5 204.656C553.167 190.147 568.866 180.344 587 180.344ZM257.438 411.656C210.796 411.656 171.683 443.534 160.438 486.656L76.4688 486.656C62.4786 486.656 51.125 498.01 51.125 512C51.125 525.99 62.4786 537.344 76.4688 537.344L160.438 537.344C171.683 580.466 210.796 612.344 257.438 612.344C304.079 612.344 343.192 580.466 354.438 537.344L947.531 537.344C961.521 537.344 972.875 525.99 972.875 512C972.875 498.01 961.521 486.656 947.531 486.656L354.438 486.656C343.192 443.534 304.079 411.656 257.438 411.656ZM257.438 462.344C275.572 462.344 291.271 472.147 299.938 486.656C304.381 494.095 307.094 502.703 307.094 512C307.094 521.297 304.381 529.905 299.938 537.344C291.271 551.853 275.572 561.656 257.438 561.656C239.303 561.656 223.604 551.853 214.938 537.344C210.494 529.905 207.781 521.297 207.781 512C207.781 502.703 210.494 494.095 214.938 486.656C223.604 472.147 239.303 462.344 257.438 462.344ZM737 693.656C690.359 693.656 651.246 725.534 640 768.656L76.4688 768.656C62.4786 768.656 51.125 780.01 51.125 794C51.125 807.99 62.4786 819.344 76.4688 819.344L640 819.344C651.246 862.466 690.359 894.344 737 894.344C783.641 894.344 822.754 862.466 834 819.344L947.531 819.344C961.521 819.344 972.875 807.99 972.875 794C972.875 780.01 961.521 768.656 947.531 768.656L834 768.656C822.754 725.534 783.641 693.656 737 693.656ZM737 744.344C755.134 744.344 770.833 754.148 779.5 768.656C783.943 776.095 786.656 784.703 786.656 794C786.656 803.297 783.943 811.905 779.5 819.344C770.833 833.853 755.134 843.656 737 843.656C718.866 843.656 703.167 833.852 694.5 819.344C690.057 811.905 687.344 803.297 687.344 794C687.344 784.703 690.057 776.095 694.5 768.656C703.167 754.147 718.866 744.344 737 744.344Z" fill="#f6aab5" fill-rule="nonzero" opacity="1" stroke="none" vectornator:layerName="Kurve 1"/>
</g>
</svg>
