<?xml version="1.0" encoding="UTF-8" standalone="no"?>
<!DOCTYPE svg PUBLIC "-//W3C//DTD SVG 1.1//EN" "http://www.w3.org/Graphics/SVG/1.1/DTD/svg11.dtd">
<!-- Created with Vectornator (http://vectornator.io/) -->
<svg height="100%" stroke-miterlimit="10" style="fill-rule:nonzero;clip-rule:evenodd;stroke-linecap:round;stroke-linejoin:round;" version="1.1" viewBox="170.876 46.5309 553.527 748.105" width="100%" xml:space="preserve" xmlns="http://www.w3.org/2000/svg" xmlns:vectornator="http://vectornator.io" xmlns:xlink="http://www.w3.org/1999/xlink">
<defs/>
<clipPath id="ArtboardFrame">
<rect height="748.105" width="553.527" x="170.876" y="46.5309"/>
</clipPath>
<g clip-path="url(#ArtboardFrame)" id="Layer" vectornator:layerName="Layer">
<path d="M408.688 46.5312C406.421 46.5202 404.124 46.8062 401.75 47.4062C380.111 52.875 385.775 88.0382 391.406 119.719C402.389 181.511 406.719 180.29 418.438 241.688C424.691 274.451 432.531 335.375 432.531 335.375C432.531 335.375 428.212 343.207 414.531 327.531C400.85 311.856 377.868 265.827 377.219 264.281C361.951 227.943 326.937 166.469 326.938 166.469C326.938 166.469 309.836 105.899 284.688 114.906C260.603 123.532 276.043 175.434 286.094 193.375C294.845 208.996 314.493 278.418 321.969 294.531C348.627 351.992 338.229 356.439 350.531 412.438C352.312 420.542 354.938 472.844 354.938 472.844C353.534 494.71 346.469 523.281 346.469 523.281C346.469 523.281 319.546 523.79 292.219 511.75C264.892 499.71 253.39 482.692 240.344 472.656C205.074 445.527 187.162 436.765 172.844 457.125C160.915 474.087 207.125 522.344 207.125 522.344C207.125 522.344 253.096 577.344 307.5 608.906C345.627 631.025 393.437 662.531 393.438 662.531C393.438 662.531 430.067 692.788 434.531 703.438C436.528 708.2 483.041 798.122 478.969 794.531C478.969 794.531 493.75 793.444 571.031 785.625C640.534 778.593 687.938 751.594 687.938 751.594C687.163 751.246 675.772 736.322 668.906 694.188C662.04 652.053 647.33 654.878 660.469 583.062C675.544 500.66 663.788 441.274 680.875 368.562C685.752 347.808 719.156 234.219 719.156 234.219C719.156 234.219 733.504 193.699 714.75 189.188C696.742 184.856 672.745 241.108 668.75 250.094C658.777 272.524 638.43 315.302 626.844 336.719C622.768 344.254 613.821 355.577 604.281 343.406C593.967 330.248 597.674 257.652 599.75 237.031C605.565 179.264 597.969 179.9 597.969 121.375C597.969 90.6179 602.615 65.0869 576.375 64.5625C550.798 64.0514 547.094 102.209 547.094 119.469C547.094 176.471 549.92 156.13 542.469 212.094C537.53 249.186 526.5 321.625 526.5 321.625C526.5 321.625 522.571 341.292 508.781 322.188C494.991 303.083 496.487 261.693 483.312 215.281C469.51 166.657 454.536 154.336 445.312 104.219C437.613 62.3805 424.552 46.6083 408.688 46.5312ZM448.812 398.969C481.167 399.653 508 427.5 508 427.5C508 427.5 534.833 399.653 567.188 398.969C599.542 398.285 623.506 439.026 623.406 463C623.311 485.913 616.814 502.321 585.375 535.719C553.936 569.116 508 595.344 508 595.344C508 595.344 462.064 569.117 430.625 535.719C399.186 502.321 392.689 485.913 392.594 463C392.494 439.026 416.458 398.285 448.812 398.969Z" fill="#ffffff" fill-rule="nonzero" opacity="1" stroke="none" vectornator:layerName="Kurve 8"/>
</g>
</svg>
