<?xml version="1.0" encoding="UTF-8" standalone="no"?>
<!DOCTYPE svg PUBLIC "-//W3C//DTD SVG 1.1//EN" "http://www.w3.org/Graphics/SVG/1.1/DTD/svg11.dtd">
<!-- Created with Vectornator (http://vectornator.io/) -->
<svg height="100%" stroke-miterlimit="10" style="fill-rule:nonzero;clip-rule:evenodd;stroke-linecap:round;stroke-linejoin:round;" version="1.1" viewBox="241.664 203.156 540.661 728.3" width="100%" xml:space="preserve" xmlns="http://www.w3.org/2000/svg" xmlns:vectornator="http://vectornator.io" xmlns:xlink="http://www.w3.org/1999/xlink">
<defs/>
<clipPath id="ArtboardFrame">
<rect height="728.3" width="540.661" x="241.664" y="203.156"/>
</clipPath>
<g clip-path="url(#ArtboardFrame)" id="Layer" vectornator:layerName="Layer">
<path d="M534.094 203.156C445.388 202.992 380.202 250.522 350.5 278.219C328.132 299.077 300.51 361.022 295.969 403.375C293.989 421.84 298.773 429.204 308.281 443.5C316.062 455.198 296.563 480.687 296.562 480.688C296.562 480.688 235.804 547.31 242.125 576.344C246.417 596.059 276.802 594.514 295.156 604.625C302.054 608.425 291.268 633.365 286.969 637.969C284.146 640.991 280.96 649.602 296.781 653.469C302.057 654.758 302.702 655.025 298.688 655.812C293.508 656.829 284.951 666.17 298 674.562C303.752 678.262 308.757 684.267 307.156 688.219C291.456 726.968 300.9 754.644 327.469 763.5C361.244 774.758 388.852 762.274 423.281 755.031C432.027 753.192 460.23 757.605 460.781 758.156C488.407 785.782 488.892 836.174 496.969 872.969C499.987 886.72 500.324 900.204 501.75 914.562C502.05 917.582 502.13 932.911 500.562 931.344C500.562 931.344 565.988 923.905 630.969 905.219C695.95 886.533 759.625 856.969 759.625 856.969C740.819 837.727 735.126 827.671 728.781 819.188C700.6 781.503 678.624 735.272 685.031 685.844C687.872 663.929 687.694 660.411 698.594 640.875C709.87 620.665 719.747 621.602 745.531 574.375C785.631 500.926 793.084 446.048 767.25 363.344C746.675 297.478 691.071 251.342 668.5 239.281C619.594 213.15 574.415 203.231 534.094 203.156ZM472.594 345.812C511.089 346.638 543 380.25 543 380.25C543 380.25 574.911 346.638 613.406 345.812C651.902 344.987 680.432 394.14 680.312 423.062C680.199 450.704 672.468 470.491 635.062 510.781C597.657 551.072 543 582.719 543 582.719C543 582.719 488.343 551.072 450.938 510.781C413.532 470.491 405.801 450.704 405.688 423.062C405.568 394.14 434.098 344.987 472.594 345.812Z" fill="#ffffff" fill-rule="nonzero" opacity="1" stroke="none" vectornator:layerName="Kurve 9"/>
</g>
</svg>
