<?xml version="1.0" encoding="UTF-8" standalone="no"?>
<!DOCTYPE svg PUBLIC "-//W3C//DTD SVG 1.1//EN" "http://www.w3.org/Graphics/SVG/1.1/DTD/svg11.dtd">
<!-- Created with Vectornator (http://vectornator.io/) -->
<svg height="100%" stroke-miterlimit="10" style="fill-rule:nonzero;clip-rule:evenodd;stroke-linecap:round;stroke-linejoin:round;" version="1.1" viewBox="0 0 1024 1024" width="100%" xml:space="preserve" xmlns="http://www.w3.org/2000/svg" xmlns:vectornator="http://vectornator.io" xmlns:xlink="http://www.w3.org/1999/xlink">
<defs/>
<g id="Layer" vectornator:layerName="Layer">
<path d="M512 0C229.23 0 0 229.23 0 512C0 794.77 229.23 1024 512 1024C794.77 1024 1024 794.77 1024 512C1024 229.23 794.77 0 512 0ZM380.531 236.938C390.742 236.207 401.215 239.36 409.562 246.594C426.258 261.06 428.092 286.336 413.625 303.031L267.188 472L844.5 472C897.833 472 897.833 552 844.5 552L267.188 552L413.625 720.969C428.092 737.664 426.258 762.94 409.562 777.406C392.867 791.873 367.623 790.039 353.156 773.344L149.5 538.312L149.375 538.188C148.11 536.709 146.944 535.169 145.906 533.531C145.886 533.499 145.864 533.469 145.844 533.438C144.957 532.062 144.223 530.643 143.531 529.219C143.435 529.02 143.312 528.825 143.219 528.625C143.209 528.604 143.197 528.584 143.188 528.562C142.417 526.898 141.799 525.208 141.281 523.5C140.787 521.87 140.397 520.244 140.125 518.594C140.099 518.437 140.055 518.282 140.031 518.125C140.023 518.074 140.039 518.02 140.031 517.969C139.844 516.706 139.75 515.451 139.688 514.188C139.643 513.458 139.567 512.734 139.562 512C139.567 511.266 139.643 510.542 139.688 509.812C139.75 508.549 139.844 507.294 140.031 506.031C140.039 505.981 140.024 505.925 140.031 505.875C140.057 505.718 140.098 505.563 140.125 505.406C140.397 503.756 140.787 502.13 141.281 500.5C141.799 498.792 142.417 497.102 143.188 495.438C143.197 495.417 143.209 495.396 143.219 495.375C143.312 495.171 143.435 494.983 143.531 494.781C144.223 493.357 144.957 491.938 145.844 490.562C145.864 490.531 145.886 490.5 145.906 490.469C146.944 488.831 148.11 487.291 149.375 485.812L149.5 485.688L353.156 250.656C360.39 242.308 370.32 237.668 380.531 236.938Z" fill="#461CA6" fill-rule="nonzero" opacity="1" stroke="none" vectornator:layerName="Kurve 4" id='arrow'/>
</g>
</svg>
