<?xml version="1.0" encoding="UTF-8" standalone="no"?>
<!DOCTYPE svg PUBLIC "-//W3C//DTD SVG 1.1//EN" "http://www.w3.org/Graphics/SVG/1.1/DTD/svg11.dtd">
<!-- Created with Vectornator (http://vectornator.io/) -->
<svg height="100%" stroke-miterlimit="10" style="fill-rule:nonzero;clip-rule:evenodd;stroke-linecap:round;stroke-linejoin:round;" version="1.1" viewBox="0 0 1024 1024" width="100%" xml:space="preserve" xmlns="http://www.w3.org/2000/svg" xmlns:vectornator="http://vectornator.io" xmlns:xlink="http://www.w3.org/1999/xlink">
<defs/>
<path d="M512 0C229.23 0 0 229.23 0 512C0 794.77 229.23 1024 512 1024C794.77 1024 1024 794.77 1024 512C1024 229.23 794.77 0 512 0ZM643.531 236.938C653.742 237.668 663.673 242.308 670.906 250.656L874.562 485.688L874.688 485.812C875.952 487.291 877.119 488.831 878.156 490.469C878.176 490.5 878.199 490.531 878.219 490.562C879.106 491.938 879.839 493.357 880.531 494.781C880.628 494.983 880.751 495.171 880.844 495.375C880.853 495.396 880.865 495.417 880.875 495.438C881.646 497.102 882.264 498.792 882.781 500.5C883.275 502.13 883.665 503.756 883.938 505.406C883.965 505.563 884.006 505.718 884.031 505.875C884.039 505.925 884.024 505.981 884.031 506.031C884.219 507.294 884.312 508.549 884.375 509.812C884.42 510.542 884.496 511.266 884.5 512C884.496 512.734 884.42 513.458 884.375 514.188C884.313 515.451 884.218 516.706 884.031 517.969C884.023 518.02 884.039 518.074 884.031 518.125C884.007 518.282 883.963 518.437 883.938 518.594C883.665 520.244 883.275 521.87 882.781 523.5C882.264 525.208 881.646 526.898 880.875 528.562C880.865 528.584 880.853 528.604 880.844 528.625C880.751 528.825 880.628 529.02 880.531 529.219C879.839 530.643 879.106 532.062 878.219 533.438C878.199 533.469 878.176 533.499 878.156 533.531C877.119 535.169 875.952 536.709 874.688 538.188L874.562 538.312L670.906 773.344C656.44 790.039 631.196 791.873 614.5 777.406C597.804 762.94 595.971 737.664 610.438 720.969L756.875 552L179.562 552C126.229 552 126.229 472 179.562 472L756.875 472L610.438 303.031C595.971 286.336 597.804 261.06 614.5 246.594C622.848 239.36 633.32 236.207 643.531 236.938Z" fill="#461CA6"  fill-rule="nonzero" opacity="1" stroke="none" vectornator:layerName="Kurve 3" id='arrow'/>

</svg>
